<svg width="33" height="33" viewBox="0 0 33 33" fill="none" xmlns="http://www.w3.org/2000/svg">
<path d="M16.605 0.227725C13.693 0.226874 10.834 1.00619 8.32515 2.48462C5.81635 3.96305 3.74944 6.0866 2.33936 8.63445C0.929289 11.1823 0.227547 14.0614 0.307112 16.9723C0.386677 19.8832 1.24464 22.7197 2.79179 25.1867L3.17954 25.8027L1.53229 31.8142L7.70054 30.1972L8.29454 30.5492C10.8046 32.0386 13.6699 32.8233 16.5885 32.8207H16.5968C20.9193 32.8215 25.065 31.1051 28.1219 28.0491C31.1789 24.9932 32.8967 20.8481 32.8974 16.5256C32.8981 12.2031 31.1818 8.05742 28.1258 5.00046C25.0699 1.9435 20.9248 0.225705 16.6023 0.224976L16.605 0.227725ZM26.186 23.5202C25.8261 24.116 25.3465 24.6305 24.7775 25.0315C24.2086 25.4324 23.5626 25.7109 22.8805 25.8495C21.8511 26.0263 20.7945 25.9604 19.795 25.657C18.8466 25.363 17.9149 25.0178 17.0038 24.623C13.6205 22.9251 10.7368 20.3768 8.63554 17.2282C7.48886 15.7709 6.79301 14.0102 6.63354 12.1627C6.62084 11.4003 6.76683 10.6435 7.06224 9.94046C7.35765 9.23743 7.79603 8.60352 8.34954 8.07897C8.51377 7.89287 8.71442 7.74243 8.9391 7.63695C9.16378 7.53147 9.4077 7.4732 9.65579 7.46573C9.98029 7.46573 10.3075 7.46572 10.5935 7.48222C10.896 7.49597 11.2975 7.36673 11.6935 8.32373C12.106 9.30273 13.085 11.7145 13.206 11.9592C13.2832 12.0877 13.3274 12.2333 13.3346 12.383C13.3418 12.5328 13.3118 12.6819 13.2473 12.8172C13.1245 13.1117 12.9596 13.3868 12.7578 13.634C12.5103 13.92 12.2435 14.272 12.0235 14.492C11.776 14.7367 11.523 15.0007 11.8063 15.4902C12.5431 16.7491 13.4614 17.8925 14.5315 18.8837C15.695 19.9154 17.0283 20.7378 18.4723 21.3147C18.9618 21.5622 19.2478 21.5182 19.5338 21.191C19.8198 20.8637 20.7575 19.761 21.0848 19.2715C21.412 18.782 21.7365 18.8645 22.1848 19.0267C22.633 19.189 25.0448 20.3742 25.5343 20.6217C26.0238 20.8692 26.351 20.9875 26.472 21.191C26.6042 21.9787 26.5049 22.7879 26.186 23.5202Z" fill="#2AB500"/>
</svg>
