<svg width="56" height="56" viewBox="0 0 56 56" fill="none" xmlns="http://www.w3.org/2000/svg">
<path d="M55.4725 13.0042C55.4469 11.8246 55.3523 10.6474 55.1892 9.47875C54.9921 8.43943 54.6563 7.43127 54.191 6.48125C53.1736 4.47149 51.5417 2.83861 49.5325 1.82C48.5884 1.35724 47.5868 1.02246 46.5542 0.8245C45.3766 0.658491 44.1902 0.562074 43.0013 0.53575C42.498 0.5165 41.8462 0.50825 41.5437 0.50825L14.4618 0.5C14.1593 0.5 13.5075 0.50825 13.0042 0.5275C11.8246 0.553076 10.6474 0.647654 9.47875 0.81075C8.43943 1.00792 7.43127 1.34367 6.48125 1.809C4.47149 2.82642 2.83861 4.45834 1.82 6.4675C1.35724 7.41158 1.02246 8.41316 0.8245 9.44575C0.657571 10.6233 0.560235 11.8097 0.533 12.9988C0.5165 13.502 0.5055 14.1537 0.5055 14.4562L0.5 41.5382C0.5 41.8407 0.50825 42.4925 0.5275 42.9957C0.553076 44.1754 0.647654 45.3526 0.81075 46.5213C1.00792 47.5606 1.34367 48.5687 1.809 49.5188C2.82642 51.5285 4.45834 53.1614 6.4675 54.18C7.41158 54.6428 8.41316 54.9775 9.44575 55.1755C10.6234 55.3415 11.8098 55.4379 12.9988 55.4642C13.502 55.4835 14.1537 55.4917 14.4562 55.4917L41.5382 55.4973C41.8407 55.4973 42.4925 55.489 42.9957 55.4697C44.1754 55.4442 45.3526 55.3496 46.5213 55.1865C47.5606 54.9893 48.5687 54.6536 49.5188 54.1883C51.5295 53.1713 53.1634 51.5393 54.1828 49.5298C54.6455 48.5857 54.9803 47.5841 55.1782 46.5515C55.3452 45.3739 55.4425 44.1875 55.4697 42.9985C55.4862 42.4953 55.4973 41.8435 55.4973 41.541L55.5 14.4618C55.5 14.1593 55.4917 13.5075 55.4725 13.0042ZM28.5968 47.1318H28.5885C25.3147 47.1342 22.0928 46.3133 19.2192 44.7448L8.82425 47.47L11.6073 37.3143C9.4525 33.5751 8.59152 29.2296 9.15782 24.9513C9.72412 20.6731 11.686 16.7012 14.7394 13.6514C17.7928 10.6017 21.767 8.64446 26.046 8.08325C30.3249 7.52204 34.6694 8.38818 38.406 10.5474C42.1425 12.7066 45.0624 16.0382 46.7128 20.0257C48.3632 24.0132 48.652 28.4338 47.5343 32.6022C46.4167 36.7705 43.9551 40.4537 40.5312 43.0806C37.1073 45.7076 32.9123 47.1315 28.5968 47.1318Z" fill="#2AB500"/>
</svg>
