<svg width="55" height="55" viewBox="0 0 55 55" fill="none" xmlns="http://www.w3.org/2000/svg">
<path d="M54.9725 12.5042C54.9469 11.3246 54.8523 10.1474 54.6892 8.97875C54.4921 7.93943 54.1563 6.93127 53.691 5.98125C52.6736 3.97149 51.0417 2.33861 49.0325 1.32C48.0884 0.85724 47.0868 0.522455 46.0542 0.3245C44.8766 0.158491 43.6902 0.0620737 42.5013 0.03575C41.998 0.0165 41.3462 0.00825006 41.0437 0.00825006L13.9618 0C13.6593 0 13.0075 0.00824997 12.5042 0.0275C11.3246 0.0530762 10.1474 0.147654 8.97875 0.31075C7.93943 0.507924 6.93127 0.843671 5.98125 1.309C3.97149 2.32642 2.33861 3.95834 1.32 5.9675C0.85724 6.91158 0.522455 7.91316 0.3245 8.94575C0.157571 10.1233 0.0602354 11.3097 0.0330002 12.4988C0.0165002 13.002 0.00550026 13.6537 0.00550026 13.9562L0 41.0382C0 41.3407 0.00824997 41.9925 0.0275 42.4957C0.0530762 43.6754 0.147654 44.8526 0.31075 46.0213C0.507924 47.0606 0.843671 48.0687 1.309 49.0188C2.32642 51.0285 3.95834 52.6614 5.9675 53.68C6.91158 54.1428 7.91316 54.4775 8.94575 54.6755C10.1234 54.8415 11.3098 54.9379 12.4988 54.9642C13.002 54.9835 13.6537 54.9917 13.9562 54.9917L41.0382 54.9973C41.3407 54.9973 41.9925 54.989 42.4957 54.9697C43.6754 54.9442 44.8526 54.8496 46.0213 54.6865C47.0606 54.4893 48.0687 54.1536 49.0188 53.6883C51.0295 52.6713 52.6634 51.0393 53.6828 49.0298C54.1455 48.0857 54.4803 47.0841 54.6782 46.0515C54.8452 44.8739 54.9425 43.6875 54.9697 42.4985C54.9862 41.9953 54.9973 41.3435 54.9973 41.041L55 13.9618C55 13.6593 54.9917 13.0075 54.9725 12.5042ZM28.0968 46.6318H28.0885C24.8147 46.6342 21.5928 45.8133 18.7192 44.2448L8.32425 46.97L11.1073 36.8143C8.9525 33.0751 8.09152 28.7296 8.65782 24.4513C9.22412 20.1731 11.186 16.2012 14.2394 13.1514C17.2928 10.1017 21.267 8.14446 25.546 7.58325C29.8249 7.02204 34.1694 7.88818 37.906 10.0474C41.6425 12.2066 44.5624 15.5382 46.2128 19.5257C47.8632 23.5132 48.152 27.9338 47.0343 32.1022C45.9167 36.2705 43.4551 39.9537 40.0312 42.5806C36.6073 45.2076 32.4123 46.6315 28.0968 46.6318Z" fill="#2AB500"/>
<path d="M28.105 10.7277C25.193 10.7269 22.334 11.5062 19.8252 12.9846C17.3163 14.463 15.2494 16.5866 13.8394 19.1344C12.4293 21.6823 11.7275 24.5614 11.8071 27.4723C11.8867 30.3832 12.7446 33.2197 14.2918 35.6867L14.6795 36.3027L13.0323 42.3142L19.2005 40.6972L19.7945 41.0492C22.3046 42.5386 25.1699 43.3233 28.0885 43.3207H28.0968C32.4193 43.3215 36.565 41.6051 39.6219 38.5491C42.6789 35.4932 44.3967 31.3481 44.3974 27.0256C44.3981 22.7031 42.6818 18.5574 39.6258 15.5005C36.5699 12.4435 32.4248 10.7257 28.1023 10.725L28.105 10.7277ZM37.686 34.0202C37.3261 34.616 36.8465 35.1305 36.2775 35.5315C35.7086 35.9324 35.0626 36.2109 34.3805 36.3495C33.3511 36.5263 32.2945 36.4604 31.295 36.157C30.3466 35.863 29.4149 35.5178 28.5038 35.123C25.1205 33.4251 22.2368 30.8768 20.1355 27.7282C18.9889 26.2709 18.293 24.5102 18.1335 22.6627C18.1208 21.9003 18.2668 21.1435 18.5622 20.4405C18.8577 19.7374 19.296 19.1035 19.8495 18.579C20.0138 18.3929 20.2144 18.2424 20.4391 18.137C20.6638 18.0315 20.9077 17.9732 21.1558 17.9657C21.4803 17.9657 21.8075 17.9657 22.0935 17.9822C22.396 17.996 22.7975 17.8667 23.1935 18.8237C23.606 19.8027 24.585 22.2145 24.706 22.4592C24.7832 22.5877 24.8274 22.7333 24.8346 22.883C24.8418 23.0328 24.8118 23.1819 24.7473 23.3172C24.6245 23.6117 24.4596 23.8868 24.2578 24.134C24.0103 24.42 23.7435 24.772 23.5235 24.992C23.276 25.2367 23.023 25.5007 23.3063 25.9902C24.0431 27.2491 24.9614 28.3925 26.0315 29.3837C27.195 30.4154 28.5283 31.2378 29.9723 31.8147C30.4618 32.0622 30.7478 32.0182 31.0338 31.691C31.3198 31.3637 32.2575 30.261 32.5848 29.7715C32.912 29.282 33.2365 29.3645 33.6848 29.5267C34.133 29.689 36.5448 30.8742 37.0343 31.1217C37.5238 31.3692 37.851 31.4875 37.972 31.691C38.1042 32.4787 38.0049 33.2879 37.686 34.0202Z" fill="#2AB500"/>
</svg>
